<svg id="visual" viewBox="0 0 960 200" width="960" height="200" xmlns="http://www.w3.org/2000/svg" xmlns:xlink="http://www.w3.org/1999/xlink" version="1.1"><rect x="0" y="0" width="960" height="200" fill="#0b0c0e"></rect><path d="M0 74L32 82.5C64 91 128 108 192 108.8C256 109.7 320 94.3 384 92.8C448 91.3 512 103.7 576 112.5C640 121.3 704 126.7 768 123C832 119.3 896 106.7 928 100.3L960 94L960 0L928 0C896 0 832 0 768 0C704 0 640 0 576 0C512 0 448 0 384 0C320 0 256 0 192 0C128 0 64 0 32 0L0 0Z" fill="#fe7f2d"></path><path d="M0 73L32 71.2C64 69.3 128 65.7 192 69.2C256 72.7 320 83.3 384 82.7C448 82 512 70 576 71C640 72 704 86 768 93.3C832 100.7 896 101.3 928 101.7L960 102L960 0L928 0C896 0 832 0 768 0C704 0 640 0 576 0C512 0 448 0 384 0C320 0 256 0 192 0C128 0 64 0 32 0L0 0Z" fill="#f8643f"></path><path d="M0 89L32 82.8C64 76.7 128 64.3 192 59.8C256 55.3 320 58.7 384 61.2C448 63.7 512 65.3 576 65.5C640 65.7 704 64.3 768 61.2C832 58 896 53 928 50.5L960 48L960 0L928 0C896 0 832 0 768 0C704 0 640 0 576 0C512 0 448 0 384 0C320 0 256 0 192 0C128 0 64 0 32 0L0 0Z" fill="#ed4b4e"></path><path d="M0 30L32 31.7C64 33.3 128 36.7 192 39C256 41.3 320 42.7 384 41.8C448 41 512 38 576 37C640 36 704 37 768 40.5C832 44 896 50 928 53L960 56L960 0L928 0C896 0 832 0 768 0C704 0 640 0 576 0C512 0 448 0 384 0C320 0 256 0 192 0C128 0 64 0 32 0L0 0Z" fill="#dc345c"></path><path d="M0 35L32 32.8C64 30.7 128 26.3 192 22.5C256 18.7 320 15.3 384 16C448 16.7 512 21.3 576 21.5C640 21.7 704 17.3 768 16.7C832 16 896 19 928 20.5L960 22L960 0L928 0C896 0 832 0 768 0C704 0 640 0 576 0C512 0 448 0 384 0C320 0 256 0 192 0C128 0 64 0 32 0L0 0Z" fill="#c62368"></path></svg>