<svg id="visual" viewBox="0 0 960 200" width="960" height="200" xmlns="http://www.w3.org/2000/svg" xmlns:xlink="http://www.w3.org/1999/xlink" version="1.1"><rect x="0" y="0" width="960" height="200" fill="#0b0c0e"></rect><path d="M0 134L16 137.5C32 141 64 148 96 150C128 152 160 149 192 142C224 135 256 124 288 117.7C320 111.3 352 109.7 384 111.3C416 113 448 118 480 125.8C512 133.7 544 144.3 576 145.3C608 146.3 640 137.7 672 134.7C704 131.7 736 134.3 768 133.8C800 133.3 832 129.7 864 127.2C896 124.7 928 123.3 944 122.7L960 122L960 201L944 201C928 201 896 201 864 201C832 201 800 201 768 201C736 201 704 201 672 201C640 201 608 201 576 201C544 201 512 201 480 201C448 201 416 201 384 201C352 201 320 201 288 201C256 201 224 201 192 201C160 201 128 201 96 201C64 201 32 201 16 201L0 201Z" fill="#C62368" stroke-linecap="round" stroke-linejoin="miter"></path></svg>