<svg xmlns="http://www.w3.org/2000/svg" xmlns:xlink="http://www.w3.org/1999/xlink" version="1.1" width="1000" height="1000" viewBox="0 0 1000 1000" xml:space="preserve">
<desc>Created with Fabric.js 3.5.0</desc>
<defs>
</defs>
<rect x="0" y="0" width="100%" height="100%" fill="rgba(255,255,255,0)"/>
<g transform="matrix(41.3223 0 0 41.3223 499.9999 499.9998)" id="612232">
<path style="stroke: none; stroke-width: 1; stroke-dasharray: none; stroke-linecap: butt; stroke-dashoffset: 0; stroke-linejoin: miter; stroke-miterlimit: 4; is-custom-font: none; font-file-url: none; fill: rgb(255,247,233); fill-rule: evenodd; opacity: 1;" vector-effect="non-scaling-stroke" transform=" translate(-12, -12)" d="M 6 1 C 4.34315 1 3 2.34315 3 4 V 20 C 3 21.6569 4.34315 23 6 23 H 18 C 19.6569 23 21 21.6569 21 20 V 8.82843 C 21 8.03278 20.6839 7.26972 20.1213 6.70711 L 15.2929 1.87868 C 14.7303 1.31607 13.9672 1 13.1716 1 H 6 Z M 5 4 C 5 3.44772 5.44772 3 6 3 H 12 V 8 C 12 9.10457 12.8954 10 14 10 H 19 V 20 C 19 20.5523 18.5523 21 18 21 H 6 C 5.44772 21 5 20.5523 5 20 V 4 Z M 18.5858 8 L 14 3.41421 V 8 H 18.5858 Z" stroke-linecap="round"/>
</g>
</svg>