<svg id="visual" viewBox="0 0 960 200" width="960" height="200" xmlns="http://www.w3.org/2000/svg" xmlns:xlink="http://www.w3.org/1999/xlink" version="1.1"><rect x="0" y="0" width="960" height="200" fill="#0b0c0e"></rect><path d="M0 129L16 131.8C32 134.7 64 140.3 96 137.8C128 135.3 160 124.7 192 119.8C224 115 256 116 288 114.5C320 113 352 109 384 111.8C416 114.7 448 124.3 480 132C512 139.7 544 145.3 576 142.2C608 139 640 127 672 125.2C704 123.3 736 131.7 768 135C800 138.3 832 136.7 864 135C896 133.3 928 131.7 944 130.8L960 130L960 201L944 201C928 201 896 201 864 201C832 201 800 201 768 201C736 201 704 201 672 201C640 201 608 201 576 201C544 201 512 201 480 201C448 201 416 201 384 201C352 201 320 201 288 201C256 201 224 201 192 201C160 201 128 201 96 201C64 201 32 201 16 201L0 201Z" fill="#038373" stroke-linecap="round" stroke-linejoin="miter"></path></svg>