<svg id="visual" viewBox="0 0 960 200" width="960" height="200" xmlns="http://www.w3.org/2000/svg" xmlns:xlink="http://www.w3.org/1999/xlink" version="1.1"><rect x="0" y="0" width="960" height="200" fill="#0b0c0e"></rect><path d="M0 124L32 116.8C64 109.7 128 95.3 192 93.7C256 92 320 103 384 102C448 101 512 88 576 87.3C640 86.7 704 98.3 768 107.8C832 117.3 896 124.7 928 128.3L960 132L960 0L928 0C896 0 832 0 768 0C704 0 640 0 576 0C512 0 448 0 384 0C320 0 256 0 192 0C128 0 64 0 32 0L0 0Z" fill="#00cc8e"></path><path d="M0 69L32 69.2C64 69.3 128 69.7 192 75.7C256 81.7 320 93.3 384 96C448 98.7 512 92.3 576 88.2C640 84 704 82 768 85.5C832 89 896 98 928 102.5L960 107L960 0L928 0C896 0 832 0 768 0C704 0 640 0 576 0C512 0 448 0 384 0C320 0 256 0 192 0C128 0 64 0 32 0L0 0Z" fill="#00b98a"></path><path d="M0 52L32 56C64 60 128 68 192 72.3C256 76.7 320 77.3 384 76.2C448 75 512 72 576 66.7C640 61.3 704 53.7 768 52.3C832 51 896 56 928 58.5L960 61L960 0L928 0C896 0 832 0 768 0C704 0 640 0 576 0C512 0 448 0 384 0C320 0 256 0 192 0C128 0 64 0 32 0L0 0Z" fill="#00a784"></path><path d="M0 42L32 44C64 46 128 50 192 52C256 54 320 54 384 54.2C448 54.3 512 54.7 576 56.3C640 58 704 61 768 57C832 53 896 42 928 36.5L960 31L960 0L928 0C896 0 832 0 768 0C704 0 640 0 576 0C512 0 448 0 384 0C320 0 256 0 192 0C128 0 64 0 32 0L0 0Z" fill="#00957c"></path><path d="M0 30L32 28C64 26 128 22 192 23C256 24 320 30 384 31.8C448 33.7 512 31.3 576 27C640 22.7 704 16.3 768 16.2C832 16 896 22 928 25L960 28L960 0L928 0C896 0 832 0 768 0C704 0 640 0 576 0C512 0 448 0 384 0C320 0 256 0 192 0C128 0 64 0 32 0L0 0Z" fill="#038373"></path></svg>